<?xml version="1.0" encoding="utf-8"?>
<!-- Generator: Adobe Illustrator 17.1.0, SVG Export Plug-In . SVG Version: 6.00 Build 0)  -->
<!DOCTYPE svg PUBLIC "-//W3C//DTD SVG 1.1//EN" "http://www.w3.org/Graphics/SVG/1.1/DTD/svg11.dtd">
<svg version="1.1" id="Capa_1" xmlns="http://www.w3.org/2000/svg" xmlns:xlink="http://www.w3.org/1999/xlink" x="0px" y="0px"
	 viewBox="59.9 90 502.6 613.6" enable-background="new 59.9 90 502.6 613.6" xml:space="preserve">
<g>
	<path fill="#FFD77D" d="M370.5,144.6c-2.8,0-5.5-1.2-7.3-3.5c-3.2-4.1-2.5-9.9,1.5-13.2l22.1-17.6c4.1-3.2,9.9-2.5,13.2,1.5
		c3.2,4.1,2.5,9.9-1.5,13.2l-22.1,17.6C374.6,143.9,372.6,144.6,370.5,144.6z"/>
	<path fill="#FFD77D" d="M400.1,177.6C400.1,177.6,400.1,177.6,400.1,177.6l-22.5-0.2c-5.2-0.1-9.3-4.3-9.3-9.5
		c0.1-5.1,4.2-9.3,9.4-9.3c0,0,0.1,0,0.1,0l22.4,0.2c5.2,0.1,9.3,4.3,9.3,9.5C409.4,173.4,405.3,177.6,400.1,177.6z"/>
	<path fill="#FFD77D" d="M234.3,460.5c-1.1,0-2.1-0.2-3.2-0.6l-25.8-9.4c-4.9-1.8-7.4-7.1-5.6-12c1.8-4.9,7.1-7.4,12-5.6l25.8,9.4
		c4.9,1.8,7.4,7.1,5.6,12C241.7,458.1,238.1,460.5,234.3,460.5z"/>
	<path fill="#FFD77D" d="M210.3,499.8c-4,0-7.7-2.6-8.9-6.6c-1.5-4.9,1.2-10.2,6.1-11.7l24-7.5c4.9-1.5,10.2,1.2,11.7,6.1
		c1.5,4.9-1.2,10.2-6.1,11.7l-24,7.5C212.2,499.7,211.2,499.8,210.3,499.8z"/>
	<path fill="#FFD77D" d="M486,335c-2.4,0-4.8-0.9-6.6-2.7c-3.7-3.7-3.7-9.6,0-13.2l17-17c3.7-3.7,9.6-3.7,13.2,0
		c3.7,3.7,3.7,9.6,0,13.2l-17,17C490.8,334.1,488.4,335,486,335z"/>
	<path fill="#FFD77D" d="M466.9,329.1c-0.7,0-1.5-0.1-2.2-0.3c-5-1.2-8.1-6.3-6.9-11.3l5.4-22c1.2-5,6.3-8.1,11.3-6.9
		c5,1.2,8.1,6.3,6.9,11.3l-5.4,22C475,326.2,471.1,329.1,466.9,329.1z"/>
	<path fill="#FFD77D" d="M112.5,133.8c-3.6,0-7.1-2.1-8.6-5.7l-7.5-17.5c-2-4.8,0.2-10.3,4.9-12.3c4.8-2,10.3,0.2,12.3,4.9l7.5,17.5
		c2,4.8-0.2,10.3-4.9,12.3C115,133.6,113.8,133.8,112.5,133.8z"/>
	<path fill="#FFD77D" d="M165.7,132.3c-1.2,0-2.5-0.2-3.7-0.8c-4.7-2.1-6.9-7.6-4.9-12.3l7.6-17.6c2.1-4.7,7.6-6.9,12.3-4.9
		c4.7,2.1,6.9,7.6,4.9,12.3l-7.6,17.6C172.8,130.2,169.4,132.3,165.7,132.3z"/>
	<path fill="#FFD77D" d="M102.5,230.8c-1.4,0-2.9-0.3-4.2-1l-12.7-6.4c-4.6-2.3-6.5-8-4.1-12.6c2.3-4.6,8-6.5,12.6-4.1l12.7,6.4
		c4.6,2.3,6.5,8,4.1,12.6C109.2,229,105.9,230.8,102.5,230.8z"/>
</g>
<path fill="#96C133" d="M265.9,349.4h-61.8c-56,0-101.5-45.6-101.5-101.6V143.7c0-20.6,16.7-37.4,37.4-37.4s37.4,16.7,37.4,37.4
	v104.1c0,14.8,12,26.8,26.8,26.8h61.8"/>
<path fill="#499421" d="M231.5,349.4h-27.4c-56,0-101.5-45.6-101.5-101.6V143.7c0-20.6,16.7-37.4,37.4-37.4c4.8,0,9.5,0.9,13.7,2.6
	c-13.9,5.5-23.7,19-23.7,34.8v104.1C129.9,303.8,175.5,349.4,231.5,349.4z"/>
<path fill="#96C133" d="M329.6,533.5h79.3c50.7,0,91.9-41.2,91.9-91.9v-94.3c0-18.7-15.2-33.9-33.9-33.9
	c-18.7,0-33.9,15.2-33.9,33.9v94.3c0,13.4-10.9,24.2-24.2,24.2h-79.3"/>
<path fill="#499421" d="M480.3,316.2c-12.1,5.2-20.5,17.2-20.5,31.1v94.3c0,13.4-10.9,24.2-24.2,24.2h-26.7
	c13.4,0,24.2-10.9,24.2-24.2v-94.3c0-18.7,15.2-33.9,33.9-33.9C471.7,313.5,476.2,314.4,480.3,316.2z"/>
<path fill="#96C133" d="M384,622.5V168c0-43.1-34.9-78-78-78c-43.1,0-78,34.9-78,78v454.5"/>
<path fill="#499421" d="M306,90c-19.6,0-35.4,34.9-35.4,78v454.5H228V168C228,124.9,262.9,90,306,90z"/>
<path fill="#E58B25" d="M562.5,703.6H59.9c55.3-52,147.2-86.1,251.3-86.1c18.9,0,37.3,1.1,55.3,3.3
	C447.4,630.5,517.2,661,562.5,703.6z"/>
<path fill="#FFCB47" d="M557.3,702H165.2c45.3-42.6,115.1-73.1,196-82.8C442.2,628.9,512,659.4,557.3,702z"/>
<g>
	<path fill="#FFD77D" d="M307.4,343.3c-1.1,0-2.1-0.2-3.2-0.6c-4.9-1.8-7.4-7.1-5.6-12l7.5-20.8c1.8-4.9,7.1-7.4,12-5.6
		c4.9,1.8,7.4,7.1,5.6,12l-7.5,20.8C314.9,340.9,311.3,343.3,307.4,343.3z"/>
	<path fill="#FFD77D" d="M289.1,200.4c-1.1,0-2.3-0.2-3.4-0.6c-4.8-1.9-7.2-7.3-5.3-12.1l6.9-17.7c1.9-4.8,7.3-7.2,12.1-5.3
		c4.8,1.9,7.2,7.3,5.3,12.1l-6.9,17.7C296.4,198.1,292.9,200.4,289.1,200.4z"/>
	<path fill="#FFD77D" d="M325.7,486c-1.1,0-2.1-0.2-3.2-0.6c-4.9-1.8-7.4-7.1-5.6-12l7.5-20.8c1.8-4.9,7.1-7.4,12-5.6
		c4.9,1.8,7.4,7.1,5.6,12l-7.5,20.8C333.1,483.7,329.5,486,325.7,486z"/>
	<path fill="#FFD77D" d="M284.9,339.9c-4.1,0-7.8-2.7-9-6.8l-5-17.5c-1.4-5,1.5-10.2,6.4-11.6c5-1.4,10.2,1.5,11.6,6.4l5,17.5
		c1.4,5-1.5,10.2-6.4,11.6C286.7,339.8,285.8,339.9,284.9,339.9z"/>
	<path fill="#FFD77D" d="M265,200.9c-4.1,0-7.8-2.7-9-6.8l-5-17.5c-1.4-5,1.5-10.2,6.4-11.6c5-1.4,10.2,1.5,11.6,6.4l5,17.5
		c1.4,5-1.5,10.2-6.4,11.6C266.7,200.8,265.8,200.9,265,200.9z"/>
</g>
</svg>
